<svg width="59" height="14" viewBox="0 0 59 14" fill="none" xmlns="http://www.w3.org/2000/svg">
<path d="M9.83496 7.75293C9.83496 8.64941 9.58008 9.33496 9.07031 9.80957C8.56641 10.2783 7.85156 10.5127 6.92578 10.5127C6.00586 10.5127 5.26758 10.2051 4.71094 9.58984C4.16016 8.96875 3.88477 8.125 3.88477 7.05859V6.0918C3.88477 5.06055 4.16309 4.2373 4.71973 3.62207C5.28223 3.00098 6.01758 2.69043 6.92578 2.69043C7.86328 2.69043 8.58398 2.93066 9.08789 3.41113C9.5918 3.8916 9.84375 4.56836 9.84375 5.44141H8.56055C8.56055 4.86133 8.41992 4.44824 8.13867 4.20215C7.86328 3.9502 7.45898 3.82422 6.92578 3.82422C6.375 3.82422 5.94141 4.02637 5.625 4.43066C5.30859 4.83496 5.15039 5.39746 5.15039 6.11816V7.11133C5.15039 7.81445 5.30859 8.36816 5.625 8.77246C5.94141 9.17676 6.375 9.37891 6.92578 9.37891C7.46484 9.37891 7.86914 9.25586 8.13867 9.00977C8.41406 8.76367 8.55176 8.34473 8.55176 7.75293H9.83496ZM1.81055 6.59277C1.81055 7.60059 2.04492 8.53516 2.51367 9.39648C2.98242 10.252 3.61816 10.9229 4.4209 11.4092C5.22949 11.8955 6.10254 12.1387 7.04004 12.1387C7.97754 12.1387 8.84766 11.8955 9.65039 11.4092C10.4531 10.9229 11.0889 10.252 11.5576 9.39648C12.0264 8.53516 12.2607 7.60059 12.2607 6.59277C12.2607 5.59668 12.0293 4.67383 11.5664 3.82422C11.1035 2.97461 10.4678 2.30664 9.65918 1.82031C8.85645 1.32812 7.9834 1.08203 7.04004 1.08203C6.10254 1.08203 5.22949 1.3252 4.4209 1.81152C3.6123 2.29199 2.97363 2.95996 2.50488 3.81543C2.04199 4.6709 1.81055 5.59668 1.81055 6.59277ZM0.799805 6.59277C0.799805 5.40918 1.07227 4.31055 1.61719 3.29688C2.16797 2.2832 2.92676 1.48633 3.89355 0.90625C4.86621 0.320312 5.91504 0.0273438 7.04004 0.0273438C8.16504 0.0273438 9.21094 0.320312 10.1777 0.90625C11.1445 1.48633 11.9004 2.2832 12.4453 3.29688C12.9961 4.31055 13.2715 5.40918 13.2715 6.59277C13.2715 7.74707 13.0078 8.82812 12.4805 9.83594C11.9531 10.8438 11.2031 11.6553 10.2305 12.2705C9.26367 12.8799 8.2002 13.1846 7.04004 13.1846C5.88574 13.1846 4.82227 12.8828 3.84961 12.2793C2.88281 11.6699 2.13281 10.8613 1.59961 9.85352C1.06641 8.8457 0.799805 7.75879 0.799805 6.59277ZM28.0635 13H19.6787V11.8311L24.1084 6.90918C24.7646 6.16504 25.2158 5.56152 25.4619 5.09863C25.7139 4.62988 25.8398 4.14648 25.8398 3.64844C25.8398 2.98047 25.6377 2.43262 25.2334 2.00488C24.8291 1.57715 24.29 1.36328 23.6162 1.36328C22.8076 1.36328 22.1777 1.59473 21.7266 2.05762C21.2812 2.51465 21.0586 3.15332 21.0586 3.97363H19.4326C19.4326 2.7959 19.8105 1.84375 20.5664 1.11719C21.3281 0.390625 22.3447 0.0273438 23.6162 0.0273438C24.8057 0.0273438 25.7461 0.34082 26.4375 0.967773C27.1289 1.58887 27.4746 2.41797 27.4746 3.45508C27.4746 4.71484 26.6719 6.21484 25.0664 7.95508L21.6387 11.6729H28.0635V13ZM37.8105 7.54199C37.8105 9.44629 37.4854 10.8613 36.835 11.7871C36.1846 12.7129 35.168 13.1758 33.7852 13.1758C32.4199 13.1758 31.4092 12.7246 30.7529 11.8223C30.0967 10.9141 29.7568 9.56055 29.7334 7.76172V5.59082C29.7334 3.70996 30.0586 2.3125 30.709 1.39844C31.3594 0.484375 32.3789 0.0273438 33.7676 0.0273438C35.1445 0.0273438 36.1582 0.469727 36.8086 1.35449C37.459 2.2334 37.793 3.59277 37.8105 5.43262V7.54199ZM36.1846 5.31836C36.1846 3.94141 35.9912 2.93945 35.6045 2.3125C35.2178 1.67969 34.6055 1.36328 33.7676 1.36328C32.9355 1.36328 32.3291 1.67676 31.9482 2.30371C31.5674 2.93066 31.3711 3.89453 31.3594 5.19531V7.79688C31.3594 9.17969 31.5586 10.2021 31.957 10.8643C32.3613 11.5205 32.9707 11.8486 33.7852 11.8486C34.5879 11.8486 35.1826 11.5381 35.5693 10.917C35.9619 10.2959 36.167 9.31738 36.1846 7.98145V5.31836ZM48.2783 13H39.8936V11.8311L44.3232 6.90918C44.9795 6.16504 45.4307 5.56152 45.6768 5.09863C45.9287 4.62988 46.0547 4.14648 46.0547 3.64844C46.0547 2.98047 45.8525 2.43262 45.4482 2.00488C45.0439 1.57715 44.5049 1.36328 43.8311 1.36328C43.0225 1.36328 42.3926 1.59473 41.9414 2.05762C41.4961 2.51465 41.2734 3.15332 41.2734 3.97363H39.6475C39.6475 2.7959 40.0254 1.84375 40.7812 1.11719C41.543 0.390625 42.5596 0.0273438 43.8311 0.0273438C45.0205 0.0273438 45.9609 0.34082 46.6523 0.967773C47.3438 1.58887 47.6895 2.41797 47.6895 3.45508C47.6895 4.71484 46.8867 6.21484 45.2812 7.95508L41.8535 11.6729H48.2783V13ZM58.0254 7.54199C58.0254 9.44629 57.7002 10.8613 57.0498 11.7871C56.3994 12.7129 55.3828 13.1758 54 13.1758C52.6348 13.1758 51.624 12.7246 50.9678 11.8223C50.3115 10.9141 49.9717 9.56055 49.9482 7.76172V5.59082C49.9482 3.70996 50.2734 2.3125 50.9238 1.39844C51.5742 0.484375 52.5938 0.0273438 53.9824 0.0273438C55.3594 0.0273438 56.373 0.469727 57.0234 1.35449C57.6738 2.2334 58.0078 3.59277 58.0254 5.43262V7.54199ZM56.3994 5.31836C56.3994 3.94141 56.2061 2.93945 55.8193 2.3125C55.4326 1.67969 54.8203 1.36328 53.9824 1.36328C53.1504 1.36328 52.5439 1.67676 52.1631 2.30371C51.7822 2.93066 51.5859 3.89453 51.5742 5.19531V7.79688C51.5742 9.17969 51.7734 10.2021 52.1719 10.8643C52.5762 11.5205 53.1855 11.8486 54 11.8486C54.8027 11.8486 55.3975 11.5381 55.7842 10.917C56.1768 10.2959 56.3818 9.31738 56.3994 7.98145V5.31836Z" fill="white"/>
</svg>
