<svg width="54" height="44" viewBox="0 0 54 44" fill="none" xmlns="http://www.w3.org/2000/svg">
<path d="M49.8031 43.0899C47.3036 43.0899 45.8219 41.5981 45.709 39.4491H48.098C48.098 40.1654 48.4365 41.1188 49.9171 41.178C50.9417 41.178 51.5082 40.4617 51.5082 39.9232C51.3954 39.0884 50.4836 39.0291 49.5763 38.8461C48.7565 38.7329 47.9532 38.4933 47.1873 38.1337C46.7977 37.8795 46.4751 37.5057 46.2545 37.0529C46.0339 36.6001 45.9237 36.0854 45.9358 35.5648C45.9358 33.6529 47.3047 32.161 49.6903 32.161C51.9664 32.161 53.4447 33.5344 53.5542 35.624H51.2814C51.2814 35.0894 51.1686 34.1914 49.8031 34.1914C48.8924 34.1914 48.3248 34.3692 48.212 35.1447C48.212 36.2218 50.1439 36.1626 51.6222 36.5773C52.2278 36.6743 52.7857 37.0135 53.2008 37.537C53.6159 38.0605 53.8625 38.7359 53.8983 39.4478C53.8983 42.0813 52.0804 43.0886 49.8042 43.0886L49.8031 43.0899ZM6.26215 25.4562L14.1073 20.1405L18.3154 28.5676H7.74045" fill="white"/>
<path d="M22.7582 42.7726V32.1412Z" fill="white"/>
<path d="M22.7582 42.7726V32.1412" stroke="black" stroke-width="12.888"/>
<path d="M2.6206 37.6149C2.63666 38.416 2.91658 39.1792 3.40222 39.7459C3.88786 40.3125 4.54189 40.6391 5.2285 40.6579C5.5721 40.661 5.91281 40.5845 6.23087 40.4328C6.54894 40.2811 6.83802 40.0572 7.08135 39.7742C7.32469 39.4911 7.51743 39.1545 7.6484 38.7838C7.77937 38.4131 7.84595 38.0158 7.8443 37.6149C7.83955 36.8078 7.56222 36.0355 7.0725 35.4656C6.58278 34.8956 5.92017 34.574 5.2285 34.5706C4.54399 34.5984 3.89393 34.9277 3.4092 35.4923C2.92446 36.057 2.64107 36.8149 2.61609 37.6136L2.6206 37.6149ZM5.11565 43.1083C3.8736 43.1083 2.68242 42.5326 1.80416 41.5078C0.925898 40.483 0.432495 39.0931 0.432495 37.6439C0.432495 36.1946 0.925898 34.8047 1.80416 33.7799C2.68242 32.7551 3.8736 32.1794 5.11565 32.1794C6.08904 32.1527 7.04465 32.4865 7.84543 33.1327V32.2979H10.1249V42.866H7.84881V42.2077C7.03997 42.8316 6.08474 43.1464 5.11565 43.1083ZM35.4828 28.561L24.5683 6.34764L32.4134 0.972717L46.0578 28.561H35.4828ZM13.0815 37.6149C13.0799 38.0158 13.1465 38.4131 13.2774 38.7838C13.4084 39.1545 13.6012 39.4911 13.8445 39.7742C14.0878 40.0572 14.3769 40.2811 14.695 40.4328C15.013 40.5845 15.3537 40.661 15.6973 40.6579C16.386 40.6422 17.043 40.317 17.5314 39.7501C18.0197 39.1833 18.3018 38.4184 18.3188 37.6149C18.2937 36.8156 18.0099 36.0571 17.5244 35.4924C17.039 34.9276 16.3881 34.5987 15.703 34.5719C15.0117 34.576 14.3496 34.8977 13.86 35.4672C13.3705 36.0367 13.0928 36.8083 13.0872 37.6149H13.0815ZM15.5845 43.1083C14.8547 43.0921 14.1383 42.8772 13.4924 42.4807C12.8464 42.0841 12.2889 41.5169 11.8641 40.8244C11.4393 40.1318 11.1592 39.3329 11.0459 38.4916C10.9327 37.6503 10.9895 36.7897 11.2118 35.9785C11.4342 35.1673 11.8159 34.428 12.3265 33.8195C12.8372 33.211 13.4626 32.7501 14.153 32.4737C14.8434 32.1973 15.5795 32.1129 16.3028 32.2273C17.0261 32.3417 17.7164 32.6518 18.3188 33.1327V28.6558H20.5904V42.866H18.3188V42.2077C17.5025 42.8134 16.5518 43.1266 15.5845 43.1083V43.1083ZM15.4716 15.9611L23.4308 10.71L32.1866 28.561H23.8844V31.1945H21.6117V28.561L15.4716 15.9611ZM52.419 31.2722C52.1197 31.2722 51.8326 31.1334 51.621 30.8865C51.4094 30.6396 51.2905 30.3046 51.2905 29.9554C51.2905 29.6062 51.4094 29.2713 51.621 29.0244C51.8326 28.7774 52.1197 28.6387 52.419 28.6387C52.7182 28.6387 53.0053 28.7774 53.2169 29.0244C53.4285 29.2713 53.5474 29.6062 53.5474 29.9554C53.5474 30.3046 53.4285 30.6396 53.2169 30.8865C53.0053 31.1334 52.7182 31.2722 52.419 31.2722ZM52.419 28.827C52.2237 28.8103 52.0288 28.8627 51.8594 28.9772C51.6901 29.0917 51.5543 29.2632 51.4697 29.4691C51.3851 29.675 51.3556 29.9059 51.3851 30.1317C51.4147 30.3575 51.5018 30.5676 51.6352 30.7347C51.7686 30.9019 51.942 31.0182 52.1329 31.0686C52.3238 31.119 52.5233 31.1011 52.7054 31.0173C52.8874 30.9335 53.0436 30.7875 53.1536 30.5986C53.2635 30.4097 53.3221 30.1864 53.3217 29.9581C53.3294 29.8137 53.3118 29.6691 53.27 29.5329C53.2282 29.3968 53.1631 29.272 53.0786 29.1662C52.9942 29.0604 52.8921 28.9757 52.7787 28.9174C52.6653 28.8591 52.5429 28.8283 52.419 28.827" fill="white"/>
<path d="M52.657 30.6784L52.4314 30.0806H52.2057V30.6784H52.0341V29.2458H52.5465C52.6346 29.2626 52.7156 29.3129 52.7768 29.3888C52.838 29.4648 52.876 29.5621 52.885 29.6658C52.889 29.7537 52.8693 29.8409 52.8289 29.9152C52.7885 29.9896 52.7292 30.0474 52.6593 30.0806L52.885 30.6784H52.657ZM52.4336 29.4288H52.2079V29.9028H52.4336C52.6593 29.9028 52.6593 29.8436 52.6593 29.6658C52.6593 29.5434 52.6593 29.4288 52.4336 29.4288ZM37.4057 37.6097C37.4041 38.0106 37.4707 38.408 37.6016 38.7786C37.7326 39.1493 37.9254 39.4859 38.1687 39.769C38.412 40.0521 38.7011 40.2759 39.0192 40.4276C39.3372 40.5793 39.678 40.6558 40.0216 40.6527C40.7092 40.6363 41.3649 40.3105 41.8516 39.7435C42.3384 39.1765 42.6187 38.4121 42.634 37.6097C42.609 36.811 42.3256 36.0531 41.8409 35.4885C41.3561 34.9238 40.7061 34.5945 40.0216 34.5667C39.3303 34.5708 38.6682 34.8925 38.1786 35.462C37.689 36.0315 37.4114 36.8031 37.4057 37.6097V37.6097ZM39.9053 43.1031C39.1753 43.0878 38.4586 42.8736 37.8122 42.4776C37.1657 42.0816 36.6076 41.5147 36.1823 40.8223C35.757 40.1299 35.4763 39.3311 35.3625 38.4896C35.2488 37.6481 35.3052 36.7872 35.5273 35.9757C35.7494 35.1642 36.131 34.4245 36.6416 33.8156C37.1522 33.2067 37.7777 32.7455 38.4682 32.4688C39.1587 32.1921 39.8951 32.1076 40.6185 32.2219C41.342 32.3363 42.0326 32.6464 42.6351 33.1275V32.2927H44.7972V42.8609H42.6351V42.2025C41.8204 42.808 40.8711 43.1207 39.9053 43.1018V43.1031ZM26.9527 37.6097C26.9688 38.4124 27.2499 39.1769 27.7372 39.7438C28.2245 40.3107 28.8805 40.6363 29.5685 40.6527C29.9122 40.656 30.253 40.5796 30.5712 40.428C30.8894 40.2764 31.1786 40.0525 31.4221 39.7695C31.6655 39.4864 31.8584 39.1497 31.9894 38.7789C32.1205 38.4082 32.1871 38.0107 32.1854 37.6097C32.1798 36.8031 31.9022 36.0315 31.4126 35.462C30.923 34.8925 30.2609 34.5708 29.5696 34.5667C28.8843 34.5932 28.2332 34.922 27.7475 35.4867C27.2618 36.0515 26.9778 36.8102 26.9527 37.6097V37.6097ZM32.1854 28.6559H34.4571V42.8648H32.1854V42.2064C31.4194 42.8273 30.5018 43.1427 29.5696 43.1058C28.946 43.1217 28.3259 42.9922 27.7457 42.7248C27.1655 42.4573 26.637 42.0574 26.1911 41.5484C25.7452 41.0394 25.3909 40.4316 25.149 39.7607C24.9071 39.0897 24.7825 38.3692 24.7825 37.6413C24.7825 36.9134 24.9071 36.1929 25.149 35.522C25.3909 34.851 25.7452 34.2432 26.1911 33.7342C26.637 33.2252 27.1655 32.8253 27.7457 32.5578C28.3259 32.2904 28.946 32.1609 29.5696 32.1768C30.5099 32.1315 31.4345 32.4685 32.1854 33.1302V28.6559Z" fill="white"/>
</svg>
