<svg width="51" height="44" viewBox="0 0 51 44" fill="none" xmlns="http://www.w3.org/2000/svg">
<path d="M19.1356 21.6271C19.1356 23.1097 19.0024 23.8511 18.0805 23.8511C17.1179 23.8511 16.9667 23.1782 16.9667 21.8312V9.9924H9.4928V23.8972C9.39196 26.0624 9.98711 28.1936 11.1618 29.8738C11.6995 30.6285 12.3765 31.2316 13.1422 31.6379C13.9078 32.0442 14.7423 32.2433 15.5832 32.2203C16.9041 32.185 18.1917 31.7297 19.3071 30.9035C18.6052 34.0044 17.0287 35.5542 14.6635 35.5542C13.7623 35.4902 12.8776 35.2438 12.0488 34.8261C11.1605 34.462 10.3054 33.9958 9.49619 33.4343V40.6579C10.3104 41.2503 11.164 41.7655 12.0488 42.1985C13.3407 42.7891 14.7147 43.0975 16.1023 43.1084C17.5853 43.1245 19.0536 42.7635 20.4051 42.0507C21.7566 41.3378 22.9588 40.2901 23.9282 38.9804C25.7956 36.4577 26.7558 33.1909 26.6083 29.862V9.9924H19.1356V21.6271ZM36.0785 1.07941C27.2098 2.01166 27.8135 13.0762 27.8135 13.0762V32.4257C32.6344 32.4257 35.0448 29.725 35.0448 25.9855V23.4587H38.6006V15.0421H35.0448V13.915C34.9991 12.8242 35.2817 11.7491 35.8438 10.8759C36.1028 10.5263 36.426 10.2493 36.7894 10.0653C37.1527 9.88138 37.5469 9.79525 37.9427 9.81333C38.5374 9.82123 39.6354 10.0517 39.851 11.0511L39.8668 11.1301V19.9022C39.7427 22.6205 40.313 25.3206 41.5053 27.6604C42.3899 29.1958 43.5934 30.4448 45.0036 31.2906C46.4361 32.1748 48.0334 32.6334 49.654 32.6258C49.8357 32.6258 50.1675 32.6258 50.4733 32.6034V23.6917C48.9453 23.6917 48.2897 23.3626 47.8022 22.6805C47.2331 21.563 46.98 20.2647 47.0788 18.9699H49.6788V9.9924H47.2154C46.7504 6.62682 45.0182 1.55607 38.5927 0.991186C38.5927 0.991186 37.8321 0.958268 37.2386 0.981969C36.7736 1.00172 36.0819 1.07941 36.0819 1.07941H36.0785ZM10.8142 31.7252V31.7383C10.0239 32.2829 9.17181 32.6951 8.28308 32.9629V33.009L8.2639 32.9695C7.83609 33.0823 7.39911 33.1411 6.96051 33.1446C6.11208 33.1677 5.27017 32.9664 4.49784 32.556C3.72551 32.1455 3.04279 31.5365 2.50079 30.7745C1.31569 29.0799 0.714923 26.9305 0.815981 24.7464V1.55607H8.28872V24.7464C8.18521 26.9297 8.78403 29.0794 9.96789 30.7745C10.225 31.1204 10.5082 31.4386 10.8142 31.7252V31.7252Z" fill="url(#paint0_linear)"/>
<path opacity="0.16" d="M19.1356 21.6271C19.1356 23.1097 19.0024 23.8511 18.0805 23.8511C17.1179 23.8511 16.9667 23.1782 16.9667 21.8312V9.9924H9.4928V23.8972C9.39196 26.0624 9.98711 28.1936 11.1618 29.8738C11.6995 30.6285 12.3765 31.2316 13.1422 31.6379C13.9078 32.0442 14.7423 32.2433 15.5832 32.2203C16.9041 32.185 18.1917 31.7297 19.3071 30.9035C18.6052 34.0044 17.0287 35.5542 14.6635 35.5542C13.7623 35.4902 12.8776 35.2438 12.0488 34.8261C11.1605 34.462 10.3054 33.9958 9.49619 33.4343V40.6579C10.3104 41.2503 11.164 41.7655 12.0488 42.1985C13.3407 42.7891 14.7147 43.0975 16.1023 43.1084C17.5853 43.1245 19.0536 42.7635 20.4051 42.0507C21.7566 41.3378 22.9588 40.2901 23.9282 38.9804C25.7956 36.4577 26.7558 33.1909 26.6083 29.862V9.9924H19.1356V21.6271ZM36.0785 1.07941C27.2098 2.01166 27.8135 13.0762 27.8135 13.0762V32.4257C32.6344 32.4257 35.0448 29.725 35.0448 25.9855V23.4587H38.6006V15.0421H35.0448V13.915C34.9991 12.8242 35.2817 11.7491 35.8438 10.8759C36.1028 10.5263 36.426 10.2493 36.7894 10.0653C37.1527 9.88138 37.5469 9.79525 37.9427 9.81333C38.5374 9.82123 39.6354 10.0517 39.851 11.0511L39.8668 11.1301V19.9022C39.7427 22.6205 40.313 25.3206 41.5053 27.6604C42.3899 29.1958 43.5934 30.4448 45.0036 31.2906C46.4361 32.1748 48.0334 32.6334 49.654 32.6258C49.8357 32.6258 50.1675 32.6258 50.4733 32.6034V23.6917C48.9453 23.6917 48.2897 23.3626 47.8022 22.6805C47.2331 21.563 46.98 20.2647 47.0788 18.9699H49.6788V9.9924H47.2154C46.7504 6.62682 45.0182 1.55607 38.5927 0.991186C38.5927 0.991186 37.8321 0.958268 37.2386 0.981969C36.7736 1.00172 36.0819 1.07941 36.0819 1.07941H36.0785ZM10.8142 31.7252V31.7383C10.0239 32.2829 9.17181 32.6951 8.28308 32.9629V33.009L8.2639 32.9695C7.83609 33.0823 7.39911 33.1411 6.96051 33.1446C6.11208 33.1677 5.27017 32.9664 4.49784 32.556C3.72551 32.1455 3.04279 31.5365 2.50079 30.7745C1.31569 29.0799 0.714923 26.9305 0.815981 24.7464V1.55607H8.28872V24.7464C8.18521 26.9297 8.78403 29.0794 9.96789 30.7745C10.225 31.1204 10.5082 31.4386 10.8142 31.7252V31.7252Z" fill="url(#paint1_linear)"/>
<defs>
<linearGradient id="paint0_linear" x1="-210.484" y1="295.964" x2="-210.484" y2="338.099" gradientUnits="userSpaceOnUse">
<stop stop-color="white"/>
<stop offset="1" stop-color="#2CA39C"/>
</linearGradient>
<linearGradient id="paint1_linear" x1="-210.484" y1="295.964" x2="-210.484" y2="338.099" gradientUnits="userSpaceOnUse">
<stop stop-color="white"/>
<stop offset="1" stop-color="#2CA39C"/>
</linearGradient>
</defs>
</svg>
