<svg width="37" height="44" viewBox="0 0 37 44" fill="none" xmlns="http://www.w3.org/2000/svg">
<path d="M35.5521 0.972717H19.7535V20.7238H36.6806V2.28945C36.6806 1.94023 36.5616 1.60532 36.35 1.35838C36.1384 1.11144 35.8514 0.972717 35.5521 0.972717V0.972717Z" fill="white"/>
<path d="M1.69793 0.972412C1.39864 0.972412 1.11161 1.11114 0.89998 1.35808C0.68835 1.60501 0.569458 1.93993 0.569458 2.28915L0.569458 20.7235H17.4965V0.972412H1.69793Z" fill="white"/>
<path d="M0.569443 23.3572V41.7916C0.569443 42.1408 0.688335 42.4757 0.899965 42.7226C1.11159 42.9696 1.39863 43.1083 1.69791 43.1083H17.4965V23.3572H0.569443Z" fill="white"/>
<path d="M19.7535 23.3572V43.1083H35.5521C35.8514 43.1083 36.1384 42.9696 36.35 42.7226C36.5616 42.4757 36.6806 42.1408 36.6806 41.7916V23.3572H19.7535Z" fill="white"/>
</svg>
