<svg width="161" height="44" viewBox="0 0 161 44" fill="none" xmlns="http://www.w3.org/2000/svg">
<path fill-rule="evenodd" clip-rule="evenodd" d="M130.892 13.6121C131.474 14.9167 131.777 16.3666 131.773 17.8375L131.86 19.9443V34.6799L131.949 36.7867C132.004 38.4154 132.584 39.9597 133.573 41.1112C134.562 42.2626 135.886 42.9364 137.282 42.9978L139.081 43.1018V19.943L139.17 17.8362C139.174 16.3586 139.482 14.9037 140.067 13.5937C140.703 12.3163 141.615 11.2565 142.713 10.5206C143.811 9.78478 145.055 9.39882 146.321 9.40149C147.586 9.40415 148.829 9.79536 149.925 10.5358C151.02 11.2763 151.929 12.34 152.561 13.62C153.135 14.9236 153.437 16.3676 153.441 17.8336L153.531 19.9325V34.6799L153.62 36.7867C153.67 38.4175 154.248 39.9655 155.238 41.1183C156.228 42.2711 157.556 42.9428 158.954 42.9978L160.752 43.1018V17.8204C160.749 14.3985 159.854 11.0587 158.185 8.24505C156.516 5.43136 154.153 3.27709 151.409 2.06865C148.665 0.860213 145.671 0.654859 142.825 1.47989C139.979 2.30492 137.416 4.12125 135.476 6.6874C133.156 3.61161 129.954 1.62845 126.471 1.10949C122.987 0.590529 119.461 1.57138 116.553 3.86826C115.147 2.04063 112.003 0.971442 110.198 0.971442V43.107L112.003 43.003C113.406 42.9681 114.742 42.3025 115.734 41.1452C116.726 39.9879 117.297 38.4283 117.326 36.792L117.42 34.6799V19.9325L117.509 17.8257C117.51 16.3528 117.812 14.9013 118.391 13.5924C119.026 12.3142 119.938 11.2533 121.035 10.5161C122.132 9.77886 123.376 9.39121 124.643 9.39201C125.909 9.39281 127.153 9.78203 128.249 10.5206C129.346 11.2593 130.257 12.3213 130.891 13.6003L130.892 13.6121ZM7.28124 43.0083L9.0868 43.107H36.1701L36.081 41.0003C36.0166 39.3762 35.4345 37.8387 34.449 36.6895C33.4634 35.5402 32.1454 34.862 30.7535 34.7879L28.9479 34.6799H12.6979L34.3646 9.39856L34.2754 7.29968C34.2422 5.66296 33.6703 4.10397 32.6784 2.94606C31.6864 1.78815 30.3506 1.1202 28.9479 1.08073L27.1424 0.984609L0.059021 0.971442L0.14817 3.07822C0.213198 4.70281 0.795264 6.24068 1.78054 7.39105C2.76581 8.54143 4.08342 9.22158 5.47569 9.29849L7.28124 9.39856H23.5312L1.86458 34.6799L1.95373 36.7867C1.9991 38.4188 2.57489 39.9697 3.56427 41.1246C4.55365 42.2795 5.88251 42.952 7.28124 43.0057V43.0083ZM103.105 7.14299C106.061 10.5905 107.901 15.127 108.311 19.9796C108.721 24.8322 107.677 29.7007 105.356 33.7558C103.036 37.8109 99.5816 40.8017 95.5829 42.2186C91.5842 43.6355 87.2882 43.3909 83.4267 41.5265C79.5653 39.6621 76.3772 36.2932 74.4057 31.9938C72.4342 27.6943 71.8012 22.7303 72.6146 17.9473C73.4279 13.1644 75.6373 8.85842 78.8663 5.76302C82.0954 2.66762 86.1443 0.974265 90.3233 0.971442C92.6969 0.969265 95.0477 1.51323 97.241 2.57221C99.4343 3.6312 101.427 5.18441 103.105 7.14299ZM97.9957 13.1091C99.5107 14.877 100.542 17.1294 100.96 19.5814C101.378 22.0334 101.164 24.575 100.344 26.8847C99.5237 29.1944 98.1352 31.1686 96.3537 32.5575C94.5722 33.9464 92.4777 34.6878 90.3351 34.6878C88.1925 34.6878 86.098 33.9464 84.3165 32.5575C82.535 31.1686 81.1465 29.1944 80.3265 26.8847C79.5065 24.575 79.2919 22.0334 79.7099 19.5814C80.1278 17.1294 81.1595 14.877 82.6745 13.1091C83.6804 11.9352 84.8748 11.004 86.1892 10.3687C87.5036 9.73339 88.9124 9.4064 90.3351 9.4064C91.7578 9.4064 93.1666 9.73339 94.481 10.3687C95.7955 11.004 96.9898 11.9352 97.9957 13.1091ZM52.4303 0.971442C57.2218 0.974934 61.816 3.19882 65.2026 7.15405C68.5891 11.1093 70.4907 16.472 70.4892 22.0629C70.4877 27.6539 68.5833 33.0152 65.1946 36.968C61.8059 40.9207 57.2105 43.1413 52.419 43.1413C47.6275 43.1413 43.0321 40.9207 39.6434 36.968C36.2548 33.0152 34.3503 27.6539 34.3488 22.0629C34.3473 16.472 36.2489 11.1093 39.6354 7.15405C43.022 3.19882 47.6162 0.974934 52.4077 0.971442H52.4303ZM60.0802 13.1025C61.5952 14.8704 62.6269 17.1228 63.0448 19.5748C63.4627 22.0268 63.2482 24.5684 62.4282 26.8781C61.6082 29.1878 60.2197 31.162 58.4382 32.5509C56.6566 33.9398 54.5622 34.6812 52.4196 34.6812C50.277 34.6812 48.1825 33.9398 46.401 32.5509C44.6195 31.162 43.2309 29.1878 42.411 26.8781C41.591 24.5684 41.3764 22.0268 41.7943 19.5748C42.2123 17.1228 43.244 14.8704 44.7589 13.1025C45.7649 11.9286 46.9592 10.9974 48.2736 10.3621C49.588 9.72681 50.9968 9.39981 52.4196 9.39981C53.8423 9.39981 55.2511 9.72681 56.5655 10.3621C57.8799 10.9974 59.0742 11.9286 60.0802 13.1025Z" fill="white"/>
</svg>
