<svg width="89" height="44" viewBox="0 0 89 44" fill="none" xmlns="http://www.w3.org/2000/svg">
<path d="M18.271 1.47437V19.0304H5.83186V1.47437H0.673615V42.6066H5.83186V25.044H18.271V42.6H23.4293V1.47437H18.271Z" fill="white"/>
<path d="M70.6603 13.0117C69.1299 13.0117 67.6339 13.5412 66.3614 14.5334C65.0889 15.5255 64.0971 16.9356 63.5114 18.5854C62.9258 20.2352 62.7725 22.0506 63.0711 23.802C63.3696 25.5535 64.1066 27.1622 65.1888 28.425C66.271 29.6877 67.6497 30.5476 69.1507 30.896C70.6517 31.2444 72.2076 31.0656 73.6215 30.3822C75.0354 29.6988 76.2439 28.5416 77.0942 27.0568C77.9444 25.572 78.3983 23.8263 78.3983 22.0406C78.3959 19.6468 77.5799 17.3519 76.1292 15.6593C74.6786 13.9667 72.7118 13.0145 70.6603 13.0117V13.0117Z" fill="white"/>
<path d="M70.6603 0.972717C67.0308 0.976376 63.4862 2.25425 60.4874 4.64016C57.4887 7.02607 55.1746 10.4096 53.8461 14.3508C53.8743 13.9926 53.8924 13.6292 53.8924 13.2631C53.8891 10.1381 52.8237 7.14216 50.9299 4.93241C49.0361 2.72267 46.4685 1.47955 43.7903 1.47572H28.5875V42.608H43.7937C46.472 42.6045 49.0398 41.3615 50.9336 39.1517C52.8275 36.9418 53.8928 33.9457 53.8957 30.8205C53.8957 30.4532 53.8777 30.091 53.8495 29.7329C55.0482 33.3005 57.0581 36.419 59.6628 38.7529C62.2675 41.0867 65.3684 42.5474 68.6317 42.9777C71.895 43.408 75.1971 42.7917 78.1826 41.195C81.168 39.5983 83.7236 37.0818 85.5744 33.9164C87.4253 30.7509 88.5011 27.0564 88.6862 23.2305C88.8713 19.4046 88.1586 15.5923 86.6248 12.2039C85.0911 8.81554 82.7944 5.97942 79.9819 4.00088C77.1695 2.02233 73.9478 0.976279 70.6637 0.975349L70.6603 0.972717ZM43.7937 36.5878H33.7503V25.0506H43.7937C45.1049 25.0506 46.3623 25.6583 47.2895 26.7402C48.2166 27.822 48.7375 29.2893 48.7375 30.8192C48.7375 32.3492 48.2166 33.8164 47.2895 34.8982C46.3623 35.9801 45.1049 36.5878 43.7937 36.5878ZM43.7937 19.0318H33.7503V7.49452H43.7937C45.1049 7.49452 46.3623 8.10228 47.2895 9.1841C48.2166 10.2659 48.7375 11.7332 48.7375 13.2631C48.7375 14.7931 48.2166 16.2604 47.2895 17.3422C46.3623 18.424 45.1049 19.0318 43.7937 19.0318V19.0318ZM52.8722 25.6589C52.2979 24.2879 51.502 23.0593 50.5284 22.0405C51.5016 21.0216 52.2971 19.793 52.8711 18.4221C52.514 20.8182 52.514 23.2681 52.8711 25.6642L52.8722 25.6589ZM70.6603 37.0895C68.1094 37.0898 65.6158 36.2074 63.4947 34.5539C61.3736 32.9005 59.7203 30.5502 58.744 27.8004C57.7676 25.0506 57.5121 22.0247 58.0096 19.1054C58.5071 16.1861 59.7354 13.5045 61.539 11.3997C63.3427 9.29496 65.6408 7.86156 68.1427 7.28079C70.6445 6.70001 73.2378 6.99795 75.5945 8.13694C77.9513 9.27592 79.9656 11.2048 81.3828 13.6796C82.8001 16.1544 83.5565 19.0641 83.5565 22.0405C83.5526 26.0301 82.1927 29.8551 79.7751 32.6763C77.3575 35.4975 74.0795 37.0846 70.6603 37.0895Z" fill="white"/>
</svg>
