<svg width="37" height="44" viewBox="0 0 37 44" fill="none" xmlns="http://www.w3.org/2000/svg">
<path d="M18.5486 43.1083C22.1196 43.1083 25.6105 41.8727 28.5797 39.5578C31.5489 37.2428 33.8632 33.9525 35.2298 30.1028C36.5963 26.2532 36.9539 22.0172 36.2572 17.9304C35.5605 13.8437 33.8409 10.0897 31.3158 7.14334C28.7907 4.19696 25.5735 2.19044 22.0711 1.37754C18.5686 0.564633 14.9383 0.981846 11.639 2.57642C8.33981 4.17099 5.51992 6.8713 3.53595 10.3359C1.55198 13.8005 0.493042 17.8737 0.493042 22.0405C0.494837 27.6274 2.39769 32.9849 5.78337 36.9354C9.16906 40.8859 13.7605 43.1062 18.5486 43.1083ZM25.8837 31.97C24.6694 31.97 20.8338 27.0046 10.0546 29.5828C9.77073 29.6908 9.47861 29.7667 9.18228 29.8093C8.89026 29.7912 8.61404 29.6489 8.40582 29.4093C8.19761 29.1697 8.07181 28.8495 8.05222 28.509C8.03263 28.1686 8.1206 27.8315 8.2995 27.5616C8.4784 27.2917 8.73584 27.1076 9.02316 27.0441C14.986 25.5075 21.0798 25.6431 26.2764 29.2707C26.5256 29.3967 26.7313 29.6166 26.8606 29.8953C26.9899 30.174 27.0352 30.4953 26.9892 30.8076C26.9433 31.1199 26.8088 31.4052 26.6073 31.6177C26.4058 31.8301 26.149 31.9575 25.878 31.9793L25.8837 31.97ZM27.8438 26.3989C27.6734 26.3463 27.7231 26.5201 26.941 26.0421C21.6399 22.6403 15.4214 21.7447 9.57047 23.5403C9.29262 23.6639 9.00051 23.7385 8.70381 23.7615C8.34665 23.7444 8.00687 23.5771 7.74717 23.2905C7.48747 23.0039 7.3254 22.6174 7.29088 22.2022C7.25636 21.7871 7.35173 21.3714 7.55936 21.0319C7.767 20.6924 8.07289 20.452 8.42056 20.3551C15.134 18.1344 22.328 19.1083 28.4272 23.0636C28.6883 23.2201 28.9048 23.4614 29.0508 23.7584C29.1968 24.0554 29.266 24.3953 29.2499 24.7372C29.2517 24.9547 29.2165 25.1705 29.1465 25.3721C29.0764 25.5737 28.9728 25.7571 28.8416 25.9117C28.7105 26.0664 28.5544 26.1891 28.3824 26.273C28.2103 26.3568 28.0257 26.4001 27.8393 26.4002L27.8438 26.3989ZM7.3361 13.2592C14.1419 10.9352 24.4404 11.6686 30.8444 16.0244C31.1911 16.2346 31.4684 16.5728 31.6332 16.9861C31.798 17.3995 31.8409 17.8648 31.7554 18.3096C31.6699 18.7545 31.4607 19.1538 31.1604 19.4454C30.8601 19.737 30.4855 19.9046 30.0951 19.9219C29.7604 19.9233 29.433 19.8077 29.1551 19.5901C23.9743 15.9809 14.705 15.1132 8.70719 17.0685C8.40397 17.1917 8.08767 17.2657 7.76717 17.2884C7.54221 17.2904 7.31918 17.2397 7.11133 17.1393C6.90348 17.0388 6.71503 16.8907 6.55717 16.7036C6.3993 16.5166 6.27523 16.2945 6.19231 16.0505C6.1094 15.8064 6.06932 15.5455 6.07447 15.283C6.05669 14.8273 6.17254 14.3781 6.40291 14.0095C6.63328 13.6408 6.96442 13.3748 7.34174 13.2553L7.3361 13.2592Z" fill="white"/>
</svg>
