<svg width="31" height="44" viewBox="0 0 31 44" fill="none" xmlns="http://www.w3.org/2000/svg">
<path d="M17.5232 1.02667C17.4409 0.983974 17.3505 0.966631 17.2608 0.976299C17.171 0.985967 17.0849 1.02232 17.0107 1.08189C16.9364 1.14146 16.8765 1.22226 16.8366 1.31656C16.7967 1.41086 16.7783 1.51551 16.7829 1.62052C16.7942 1.86807 16.8021 2.11693 16.8021 2.30654C16.8027 5.37579 16.0338 8.3782 14.5901 10.9439C13.1464 13.5095 11.091 15.5264 8.67713 16.7459C7.94178 15.1789 7.5484 13.4247 7.53172 11.6383C7.52578 11.5279 7.49443 11.4214 7.44098 11.3301C7.38752 11.2387 7.31394 11.1659 7.22799 11.1193C7.14204 11.0726 7.04691 11.0539 6.9526 11.0651C6.8583 11.0762 6.76832 11.1168 6.69214 11.1827C4.61708 12.9929 2.9732 15.3921 1.91671 18.1525C0.860228 20.9129 0.426239 23.9426 0.655992 26.9538C0.885746 29.965 1.77161 32.8577 3.22939 35.3568C4.68717 37.856 6.66845 39.8787 8.98494 41.2327C11.3014 42.5867 13.8762 43.227 16.4645 43.0928C19.0528 42.9585 21.5687 42.0542 23.7731 40.4658C25.9776 38.8773 27.7972 36.6575 29.0593 34.0173C30.3213 31.3771 30.9837 28.4042 30.9836 25.381V25.2099C30.9841 20.0919 29.7129 15.0836 27.3239 10.7915C24.9348 6.49931 21.5305 3.10745 17.5232 1.02667Z" fill="white"/>
</svg>
